<?xml version="1.0" encoding="utf-8"?>
<!-- Generator: Adobe Illustrator 27.8.1, SVG Export Plug-In . SVG Version: 6.00 Build 0)  -->
<svg version="1.1" id="Layer_1" xmlns="http://www.w3.org/2000/svg" xmlns:xlink="http://www.w3.org/1999/xlink" x="0px" y="0px"
	 viewBox="0 0 491.5 491.5" style="enable-background:new 0 0 491.5 491.5;" xml:space="preserve">
<style type="text/css">
	.st0{fill:#231F20;}
	.st1{display:none;fill:none;}
</style>
<g id="Layer_x0020_1">
	<g id="_425561880">
		<path id="_425561520" class="st0" d="M322.9,288.7c29.6,0,56.4,10.1,75.9,26.3c19.9,16.6,32.3,39.6,32.3,65.2
			c0,50.4-41.4,50.2-95,49.8c-1.9,0-4,0-13.2,0c-9.2,0-11.3,0-13.2,0c-53.6,0.3-95,0.6-95-49.8c0-25.5,12.3-48.6,32.3-65.2
			C266.5,298.8,293.3,288.7,322.9,288.7L322.9,288.7z M322.9,158.3c16.3,0,31.2,4.1,41.8,12.7c10.1,8.2,16.3,20,16.3,35.8
			c0,16.4-7.1,37.3-18.4,52.9c-10.2,14.2-24.1,24.4-39.7,24.4c-15.6,0-29.5-10.2-39.7-24.4c-11.3-15.6-18.4-36.5-18.4-52.9
			c0-15.8,6.2-27.6,16.3-35.8C291.7,162.4,306.6,158.3,322.9,158.3z"/>
		<path id="_425562048" class="st0" d="M226.4,61.4H120.5c-16.5,0-31.5,6.8-42.4,17.6C67.2,90,60.5,105,60.5,121.5
			s6.8,31.5,17.6,42.4c10.9,10.9,25.9,17.6,42.4,17.6h81c2.5,0,4.7,1,6.3,2.6l26.1,26.1l-5-18.6l0,0c-1.3-4.7,1.5-9.5,6.2-10.8
			c0.5-0.1,1-0.2,1.5-0.3c14.1-2.4,26.6-9.8,35.5-20.3c8.9-10.5,14.3-24,14.3-38.8c0-16.5-6.8-31.5-17.6-42.4
			C257.9,68.2,242.9,61.4,226.4,61.4L226.4,61.4z"/>
	</g>
	<rect class="st1" width="491.5" height="491.5"/>
</g>
</svg>
