<svg xmlns="http://www.w3.org/2000/svg" fill="#000000" viewBox="6 6 36 36"><path d="M 11.5 6 C 8.4802259 6 6 8.4802259 6 11.5 L 6 36.5 C 6 39.519774 8.4802259 42 11.5 42 L 36.5 42 C 39.519774 42 42 39.519774 42 36.5 L 42 11.5 C 42 8.4802259 39.519774 6 36.5 6 L 11.5 6 z M 12.5 11 C 26.009 11 37 21.99 37 35.5 C 37 36.328 36.329 37 35.5 37 C 34.671 37 34 36.328 34 35.5 C 34 23.645 24.355 14 12.5 14 C 11.671 14 11 13.328 11 12.5 C 11 11.672 11.671 11 12.5 11 z M 12.5 20 C 21.047 20 28 26.953 28 35.5 C 28 36.328 27.329 37 26.5 37 C 25.671 37 25 36.328 25 35.5 C 25 28.607 19.393 23 12.5 23 C 11.671 23 11 22.328 11 21.5 C 11 20.672 11.671 20 12.5 20 z M 15 29 C 17.209 29 19 30.791 19 33 C 19 35.209 17.209 37 15 37 C 12.791 37 11 35.209 11 33 C 11 30.791 12.791 29 15 29 z"/></svg>