<svg xmlns="http://www.w3.org/2000/svg" fill="#000000" viewBox="6.35 6 51.65 51.65"><path d="M46.85 33.708C53.215 32.391 58 26.755 58 20c0-7.732-6.268-14-14-14-6.755 0-12.391 4.785-13.708 11.15L46.85 33.708zM28 22L6.57 48.3c-.324.398-.295.976.068 1.339l7.723 7.723c.363.363.941.392 1.339.068l25.242-20.567L28 22zM27.414 39.414c-.391.391-2.823 2.823-3 3-.781.781-2.047.781-2.828 0-.781-.781-.781-2.047 0-2.828.177-.177 2.609-2.609 3-3 .781-.781 2.047-.781 2.828 0C28.195 37.367 28.195 38.633 27.414 39.414z"/></svg>