<svg xmlns="http://www.w3.org/2000/svg" id="a" viewBox="3.5 1.75 17 20.5"><path d="M3.5,10.25C3.5,5.563,7.313,1.75,12,1.75s8.5,3.813,8.5,8.5c0,3.0249-1.6284,5.8462-4.2495,7.3623-.0791,.0459-.165,.0674-.25,.0674-.1729,0-.3408-.0894-.4331-.2495-.1387-.2393-.0566-.5449,.1821-.6831,2.3135-1.3384,3.7505-3.8281,3.7505-6.4971,0-4.1357-3.3643-7.5-7.5-7.5s-7.5,3.3643-7.5,7.5c0,2.6689,1.437,5.1587,3.7505,6.4971,.2388,.1382,.3208,.4438,.1821,.6831-.1377,.2383-.4434,.3208-.6831,.1821-2.6211-1.5161-4.2495-4.3374-4.2495-7.3623Zm13,0c0,.9829-.311,1.9165-.8999,2.7002-.1655,.2207-.1211,.5342,.0996,.7002,.0898,.0674,.1953,.1001,.2998,.1001,.1519,0,.3022-.0688,.4004-.1997,.7197-.958,1.1001-2.0996,1.1001-3.3008,0-3.0327-2.4673-5.5-5.5-5.5s-5.5,2.4673-5.5,5.5c0,1.2012,.3804,2.3428,1.1001,3.3008,.1665,.2212,.481,.2656,.7002,.0996,.2207-.166,.2651-.4795,.0996-.7002-.5889-.7837-.8999-1.7173-.8999-2.7002,0-2.4814,2.0186-4.5,4.5-4.5s4.5,2.0186,4.5,4.5Zm-4.5-2c-1.1046,0-2,.8954-2,2s.8954,2,2,2,2-.8954,2-2-.8954-2-2-2Zm-.775,6c-.7368,0-1.3068,.5972-1.2153,1.2733l.775,5.7344c.0766,.5669,.5977,.9923,1.2153,.9923s1.1387-.4254,1.2153-.9923l.775-5.7344c.0914-.6761-.4786-1.2733-1.2153-1.2733h-1.55Z"/></svg>