<svg xmlns="http://www.w3.org/2000/svg" id="a" viewBox="1.25 4.25 21.5 15.5"><path d="M5.4561,18.4668c.2949,.292,.2969,.7666,.0059,1.0605-.1465,.1484-.3398,.2227-.5332,.2227-.1904,0-.3818-.0723-.5273-.2168-2.0322-2.0117-3.1514-4.6875-3.1514-7.5332s1.1191-5.5215,3.1514-7.5332c.2939-.291,.7705-.2891,1.0605,.0059,.291,.2939,.2891,.7686-.0059,1.0605-1.7451,1.7275-2.7061,4.0244-2.7061,6.4668s.9609,4.7393,2.7061,6.4668ZM19.5986,4.4668c-.293-.291-.7695-.2891-1.0605,.0059-.291,.2939-.2891,.7686,.0059,1.0605,1.7451,1.7275,2.7061,4.0244,2.7061,6.4668s-.9609,4.7393-2.7061,6.4668c-.2949,.292-.2969,.7666-.0059,1.0605,.1465,.1484,.3398,.2227,.5332,.2227,.1904,0,.3818-.0723,.5273-.2168,2.0322-2.0117,3.1514-4.6875,3.1514-7.5332s-1.1191-5.5215-3.1514-7.5332Zm-11.3076,2.8057c-.29-.2949-.7666-.2969-1.0605-.0059-1.2773,1.2637-1.9805,2.9443-1.9805,4.7334s.7031,3.4697,1.9805,4.7334c.1465,.1445,.3369,.2168,.5273,.2168,.1934,0,.3867-.0742,.5332-.2227,.291-.2939,.2891-.7695-.0059-1.0605-.9902-.9795-1.5352-2.2822-1.5352-3.667s.5449-2.6875,1.5352-3.667c.2949-.291,.2969-.7666,.0059-1.0605Zm8.4785-.0059c-.2949-.291-.7695-.2891-1.0605,.0059-.291,.2939-.2891,.7695,.0059,1.0605,.9902,.9795,1.5352,2.2822,1.5352,3.667s-.5449,2.6875-1.5352,3.667c-.2949,.291-.2969,.7666-.0059,1.0605,.1465,.1484,.3398,.2227,.5332,.2227,.1904,0,.3818-.0723,.5273-.2168,1.2773-1.2637,1.9805-2.9443,1.9805-4.7334s-.7031-3.4697-1.9805-4.7334Zm-4.7695,2.7334c-1.1046,0-2,.8954-2,2s.8954,2,2,2,2-.8954,2-2-.8954-2-2-2Z"/></svg>